<svg xmlns="http://www.w3.org/2000/svg" viewBox="0 0 640 360" enable-background="new 0 0 640 360"><path fill="#BB9D6E" d="M481 208.2c30-9 61.1-21.2 91-37.5 47.9-27.9 72.4 1.1 54.6 44.8-15.1 41.4-95.7 118.5-166 136.1-26.9-19-79.7-32-140.7-32.2-61 .2-113.8 13.2-140.7 32.2-70.2-17.6-150.8-94.7-166-136.1-17.8-43.8 6.7-72.7 54.6-44.8 30 16.4 61 28.5 90.9 37.6 64.3 19.4 123.3 24.1 154.2 24.2h17c31.1-.4 88.6-5.5 151.1-24.3z"/><path fill="#BB9D6E" d="M394.2 13.4c25 12.5 65.8 130.3 81.6 178.7-60.5 17.6-115.7 22.3-145.7 22.7h-17c-30.1 0-86.7-4.5-149-22.6 15.8-48.3 56.6-166.2 81.6-178.7 28.7-14.4 53.4 9.4 73.2 11.8h-3.8c1.6.2 3.2.2 4.8.1 1.6.1 3.3.1 4.8-.1h-3.7c19.9-2.5 44.5-26.2 73.2-11.9zm-9.8 91.5c0-5.2-4.2-9.5-9.5-9.5-4.8 0-8.8 3.6-9.4 8.2l-29.2-4.2-12.9-26c3.5-1.4 5.9-4.8 5.9-8.8 0-5.2-4.2-9.5-9.5-9.5s-9.5 4.2-9.5 9.5c0 4 2.5 7.4 6 8.8l-12.8 26-29.3 4.2c-.6-4.6-4.6-8.2-9.4-8.2-5.2 0-9.5 4.2-9.5 9.5 0 5.2 4.2 9.5 9.5 9.5 3.2 0 6.1-1.6 7.8-4l20.8 20.2-5.2 30.4c-1.2-.5-2.4-.8-3.8-.8-5.2 0-9.5 4.2-9.5 9.5 0 5.2 4.2 9.5 9.5 9.5 5.2 0 9.5-4.2 9.5-9.5 0-2-.6-3.8-1.6-5.3l27.6-14.5 27.6 14.5c-1 1.5-1.7 3.4-1.7 5.3 0 5.2 4.2 9.5 9.5 9.5 5.2 0 9.5-4.2 9.5-9.5 0-5.2-4.2-9.5-9.5-9.5-1.3 0-2.5.3-3.7.7l-5.2-30.4 20.7-20.2c1.7 2.4 4.5 4 7.7 4 5.4.1 9.6-4.2 9.6-9.4z"/></svg>