<?xml version="1.0" encoding="utf-8"?>
<!-- Generator: Adobe Illustrator 18.1.1, SVG Export Plug-In . SVG Version: 6.00 Build 0)  -->
<svg version="1.1" id="Layer_1" xmlns="http://www.w3.org/2000/svg" xmlns:xlink="http://www.w3.org/1999/xlink" x="0px" y="0px"
	 viewBox="0 0 640 360" enable-background="new 0 0 640 360" xml:space="preserve">
<g>
	<path fill="#BB9D6E" d="M481,208.2C481.1,208.2,481.1,208.2,481,208.2c30-9,61.1-21.2,91-37.5c47.9-27.9,72.4,1.1,54.6,44.8
		c-15.1,41.4-95.7,118.5-166,136.1c-26.9-19-79.7-32-140.7-32.2c-61,0.2-113.8,13.2-140.7,32.2c-70.2-17.6-150.8-94.7-166-136.1
		c-17.8-43.8,6.7-72.7,54.6-44.8c30,16.4,61,28.5,90.9,37.6c64.3,19.4,123.3,24.1,154.2,24.2l17,0C361,232.1,418.5,227,481,208.2z"
		/>
	<g id="XMLID_1_">
		<path fill="#BB9D6E" d="M394.2,13.4c25,12.5,65.8,130.3,81.6,178.7c-60.5,17.6-115.7,22.3-145.7,22.7l-17,0
			c-30.1,0-86.7-4.5-149-22.6c15.8-48.3,56.6-166.2,81.6-178.7c28.7-14.4,53.4,9.4,73.2,11.8h-3.8c1.6,0.2,3.2,0.2,4.8,0.1
			c1.6,0.1,3.3,0.1,4.8-0.1H321C340.9,22.8,365.5-0.9,394.2,13.4z M384.4,104.9c0-5.2-4.2-9.5-9.5-9.5c-4.8,0-8.8,3.6-9.4,8.2
			l-29.2-4.2l-12.9-26c3.5-1.4,5.9-4.8,5.9-8.8c0-5.2-4.2-9.5-9.5-9.5s-9.5,4.2-9.5,9.5c0,4,2.5,7.4,6,8.8l-12.8,26l-29.3,4.2
			c-0.6-4.6-4.6-8.2-9.4-8.2c-5.2,0-9.5,4.2-9.5,9.5c0,5.2,4.2,9.5,9.5,9.5c3.2,0,6.1-1.6,7.8-4l20.8,20.2l-5.2,30.4
			c-1.2-0.5-2.4-0.8-3.8-0.8c-5.2,0-9.5,4.2-9.5,9.5c0,5.2,4.2,9.5,9.5,9.5c5.2,0,9.5-4.2,9.5-9.5c0-2-0.6-3.8-1.6-5.3l27.6-14.5
			l27.6,14.5c-1,1.5-1.7,3.4-1.7,5.3c0,5.2,4.2,9.5,9.5,9.5c5.2,0,9.5-4.2,9.5-9.5c0-5.2-4.2-9.5-9.5-9.5c-1.3,0-2.5,0.3-3.7,0.7
			l-5.2-30.4l20.7-20.2c1.7,2.4,4.5,4,7.7,4C380.2,114.4,384.4,110.1,384.4,104.9z"/>
	</g>
</g>
<g>
</g>
<g>
</g>
<g>
</g>
<g>
</g>
<g>
</g>
<g>
</g>
<g>
</g>
<g>
</g>
<g>
</g>
<g>
</g>
<g>
</g>
<g>
</g>
<g>
</g>
<g>
</g>
<g>
</g>
</svg>
