<svg xmlns="http://www.w3.org/2000/svg" viewBox="0 0 478.8 480" enable-background="new 0 0 478.8 480"><path fill="#BB9D6E" d="M79.9 468.1c5.6.5 10.5-3.3 11.6-8.7-.5 5.9 3.9 11.2 9.8 11.7 6 .5 11.3-3.8 11.8-9.8.6-6.4 2.1-22.6 2.8-28.4h.5c38.6 3.2 82.3-25.6 90.9-86.8 3.7-26.4-3.1-52.8-19.1-74.1-10.9-14.5-25.3-25.4-41.6-32.2 1.2-2.4 2.1-4.9 2.5-7.7 1-7-.8-13.9-5.1-19.6-4.2-5.6-10.4-9.3-17.4-10.3-13-1.8-25.5 6.3-29.1 18.9-.3 1.2-.6 2.3-.8 3.6-.4 2.7-.2 5.4.2 8.1-2.9.3-5.7.8-8.5 1.3l-6.9-18.8c6.9-4.9 12.3-12 14.7-20.5 1.2-4.2 1.6-8.5 1.4-12.9l-3.1-47.9c-.3-4.5-1.4-8.8-3.1-12.7l25.7-21.1 1.8 1c9.1 4.5 19.4 5.1 28.9 1.9l45.5-15.5c11.8-4 20.8-13.5 24.2-25.5v-.2l22.5-.5c3.7 9.2 10.9 16.9 20.8 21l44.4 18.3c9.2 3.8 19.3 3.8 28.6.1l10 12.7c-2.1 3.2-3.7 6.7-4.8 10.4-1.4 5.1-1.8 10.3-1.1 15.5l6.5 47.6c2 14.2 11.6 25.5 24.2 30.3l-.5 15.8c-33.4 1.1-65.5 18.7-83.4 49.6-5.7 9.8-9.8 19.5-12.5 28.9-11.9 41.8 4 78 30.4 95.5l.4.3c-3.1 5.1-11.8 19-15.3 24.4-3.2 5.1-1.7 11.8 3.4 15 5.1 3.2 11.8 1.7 15-3.4-.4.7-.7 1.4-.9 2.1-1.3 4.5.5 9.5 4.6 12.1 5.1 3.2 11.8 1.7 15-3.4 1.3-2.1 12-19 15.7-25.1.1 0 .3.1.5.2 34.6 17.5 85.9 7.2 116.9-46.2 23.3-40.2 15.3-90-16.3-121.3 2-1.8 3.8-3.8 5.2-6.2 1.1-1.9 2-3.9 2.6-6 3.3-11.6-1.7-24-12.1-30.1-12.6-7.3-28.8-3-36.1 9.6-1.1 1.9-2 3.9-2.6 6-.2.5-.2 1.1-.3 1.6-2.8-.8-5.5-1.4-8.3-1.9l.5-16c13.5-3 24.4-13.1 28.2-26.5 1.4-5.1 1.8-10.3 1.1-15.5l-6.5-47.6c-2.8-20.7-22-35.2-42.7-32.4-3.5.5-6.8 1.5-9.9 2.8l-9.7-12.2c1.6-2.2 2.9-4.6 3.9-7.2 8-19.6-1.5-41.6-20.6-49.5l-44.4-18.3c-9.4-3.9-19.7-3.8-29 .1s-16.6 11.2-20.5 20.6c-.6 1.3-1 2.7-1.4 4.1-.3.9-.5 1.8-.7 2.8l-21 .4-.2-.7c-3.3-9.6-10.1-17.3-19.1-21.8-9.1-4.5-19.4-5.1-29-1.9l-45.5 15.5c-11.8 4-20.8 13.5-24.3 25.5-2.1 7.4-1.9 15.2.6 22.6.6 1.8 1.4 3.5 2.2 5.1l-24.6 20.3c-6.8-4.5-14.8-6.6-23.1-6.1-15.9 1-29.6 12.1-34 27.4-1.2 4.2-1.6 8.5-1.4 12.9l3.1 47.9c1.3 20.4 18.7 36 39 35.4l6.8 18.4c-26.5 11.8-47.4 34.8-55.7 63.9-1.2 4.4-2.2 8.9-2.9 13.5-8.7 61 25.3 100.7 63.3 108.4.2 0 .3.1.5.2-.8 7.1-2.7 27.1-2.9 29.5-.6 5.9 3.8 11.2 9.8 11.7zm358.9-95.9c-18.4 31.6-54.6 54.8-88.3 37.7-10.3-5.2-22.5-2.3-28 6.6 5.1-9.1 1.5-21.2-8.1-27.6-31.5-20.8-29.4-63.7-11.1-95.4 21.7-37.4 69.7-50.1 107.1-28.4 37.3 21.7 50.1 69.7 28.4 107.1zm-19.3-132.3c1.3-2.2 4.2-3 6.5-1.7 1.9 1.1 2.8 3.3 2.2 5.4-.1.4-.3.7-.5 1.1-1.3 2.2-4.2 3-6.4 1.7-2.3-1.3-3.1-4.3-1.8-6.5zm-28.1-107.8l6.5 47.6c.3 2.2.1 4.5-.5 6.6-1.1 3.7-3.4 6.9-6.5 9l.5-15.4c.2-6-4.5-11-10.5-11.2-5.1-.2-9.5 3.2-10.8 7.9-.2.8-.4 1.7-.4 2.6l-.4 12.9c-1.8-2.2-3.1-4.9-3.5-8l-6.5-47.6c-.2-1.1-.2-2.3-.1-3.4l7.5 9.5c3.7 4.7 10.5 5.5 15.2 1.8 4.7-3.7 5.5-10.5 1.8-15.2l-8.7-11c8.1-.2 15.3 5.6 16.4 13.9zm-122.5-99.7c4-1.7 8.4-1.7 12.4 0l44.4 18.3c7 2.9 10.9 10.1 9.8 17.4l-5.2-6.6c-3.7-4.7-10.5-5.5-15.2-1.8-1.9 1.5-3.1 3.4-3.7 5.5-.9 3.2-.3 6.9 1.9 9.7l5.4 6.9c-1.8-.1-3.6-.4-5.3-1.1l-44.4-18.3c-1-.4-1.9-.9-2.7-1.4l8.2-.2c6-.1 10.7-5.1 10.6-11.1-.1-6-5.1-10.7-11.1-10.6l-12.9.3c1.8-3.2 4.5-5.6 7.8-7zm-138.6 19.4l45.5-15.5c4.1-1.4 8.5-1.1 12.4.8 1.8.9 3.4 2.1 4.7 3.5l-8.6.2c-4.9.1-8.9 3.4-10.2 7.9-.3 1-.4 2.1-.4 3.2.1 6 5.1 10.7 11.1 10.6l8.4-.2c-1.8 2.1-4.2 3.8-6.9 4.7l-45.5 15.5c-1.1.4-2.1.6-3.2.7l7.9-6.5c4.6-3.8 5.3-10.7 1.5-15.3-3.8-4.6-10.6-5.3-15.3-1.5l-12 9.9c-1.3-7.5 3.3-15.5 10.6-18zm-86.7 133.7l-3.1-47.9c-.6-8.8 6.5-16.7 15.1-17.2.9-.1 1.8 0 2.7.1l-7.3 6c-1.8 1.4-2.9 3.3-3.5 5.4-.9 3.3-.3 7 2.1 9.9 3.8 4.6 10.6 5.3 15.3 1.5l8.1-6.7 3.1 46.9c.1 1.9-.1 3.7-.6 5.5-.4 1.6-1.1 3-2 4.3l-3.9-10.5c-2.1-5.6-8.3-8.5-13.9-6.4-3.4 1.2-5.8 4-6.7 7.2-.6 2.1-.6 4.5.3 6.7l3.2 8.7c-5-2.7-8.5-7.6-8.9-13.5zm75.4 45.7c-.4-.6-1.1-1.8-.9-3.5.3-2.6 2.8-4.4 5.3-4 1.7.2 2.7 1.2 3.1 1.8.4.6 1.1 1.8.9 3.5 0 .2-.1.4-.1.7-.6 2.2-2.9 3.7-5.2 3.3-1.7-.2-2.6-1.2-3.1-1.8zm-88.4 90c6-42.8 45.7-72.6 88.5-66.6 20.7 2.9 39.1 13.7 51.6 30.5 12.6 16.7 17.9 37.3 15 58-6.7 47.9-39.1 70.5-67.7 68.2-11.5-.9-21.6 6.3-23.4 16.6 1.2-10.3-6.6-20.1-17.9-22.4-37-7.5-51.2-48.1-46.1-84.3z"/></svg>