<?xml version="1.0" encoding="utf-8"?>
<!-- Generator: Adobe Illustrator 18.1.1, SVG Export Plug-In . SVG Version: 6.00 Build 0)  -->
<svg version="1.1" id="Layer_1" xmlns="http://www.w3.org/2000/svg" xmlns:xlink="http://www.w3.org/1999/xlink" x="0px" y="0px"
	 viewBox="0 0 478.8 480" enable-background="new 0 0 478.8 480" xml:space="preserve">
<g id="Your_Icon_2_">
	<path fill="#BB9D6E" d="M79.9,468.1c5.6,0.5,10.5-3.3,11.6-8.7c-0.5,5.9,3.9,11.2,9.8,11.7c6,0.5,11.3-3.8,11.8-9.8
		c0.6-6.4,2.1-22.6,2.8-28.4c0.1,0,0.3,0,0.5,0c38.6,3.2,82.3-25.6,90.9-86.8c3.7-26.4-3.1-52.8-19.1-74.1
		c-10.9-14.5-25.3-25.4-41.6-32.2c1.2-2.4,2.1-4.9,2.5-7.7c1-7-0.8-13.9-5.1-19.6c-4.2-5.6-10.4-9.3-17.4-10.3
		c-13-1.8-25.5,6.3-29.1,18.9c-0.3,1.2-0.6,2.3-0.8,3.6c-0.4,2.7-0.2,5.4,0.2,8.1c-2.9,0.3-5.7,0.8-8.5,1.3l-6.9-18.8
		c6.9-4.9,12.3-12,14.7-20.5c1.2-4.2,1.6-8.5,1.4-12.9l-3.1-47.9c-0.3-4.5-1.4-8.8-3.1-12.7l25.7-21.1c0.6,0.3,1.2,0.7,1.8,1
		c9.1,4.5,19.4,5.1,28.9,1.9l45.5-15.5c11.8-4,20.8-13.5,24.2-25.5c0-0.1,0-0.1,0-0.2l22.5-0.5c3.7,9.2,10.9,16.9,20.8,21l44.4,18.3
		c9.2,3.8,19.3,3.8,28.6,0.1l10,12.7c-2.1,3.2-3.7,6.7-4.8,10.4c-1.4,5.1-1.8,10.3-1.1,15.5l6.5,47.6c2,14.2,11.6,25.5,24.2,30.3
		l-0.5,15.8c-33.4,1.1-65.5,18.7-83.4,49.6c-5.7,9.8-9.8,19.5-12.5,28.9c-11.9,41.8,4,78,30.4,95.5c0.1,0.1,0.3,0.2,0.4,0.3
		c-3.1,5.1-11.8,19-15.3,24.4c-3.2,5.1-1.7,11.8,3.4,15c5.1,3.2,11.8,1.7,15-3.4l0,0c-0.4,0.7-0.7,1.4-0.9,2.1
		c-1.3,4.5,0.5,9.5,4.6,12.1c5.1,3.2,11.8,1.7,15-3.4c1.3-2.1,12-19,15.7-25.1c0.1,0,0.3,0.1,0.5,0.2c34.6,17.5,85.9,7.2,116.9-46.2
		c23.3-40.2,15.3-90-16.3-121.3c2-1.8,3.8-3.8,5.2-6.2c1.1-1.9,2-3.9,2.6-6c3.3-11.6-1.7-24-12.1-30.1c-12.6-7.3-28.8-3-36.1,9.6
		c-1.1,1.9-2,3.9-2.6,6c-0.2,0.5-0.2,1.1-0.3,1.6c-2.8-0.8-5.5-1.4-8.3-1.9l0.5-16c13.5-3,24.4-13.1,28.2-26.5
		c1.4-5.1,1.8-10.3,1.1-15.5l-6.5-47.6c-2.8-20.7-22-35.2-42.7-32.4c-3.5,0.5-6.8,1.5-9.9,2.8l-9.7-12.2c1.6-2.2,2.9-4.6,3.9-7.2
		c8-19.6-1.5-41.6-20.6-49.5l-44.4-18.3c-9.4-3.9-19.7-3.8-29,0.1c-9.3,3.9-16.6,11.2-20.5,20.6c-0.6,1.3-1,2.7-1.4,4.1
		c-0.3,0.9-0.5,1.8-0.7,2.8l-21,0.4c-0.1-0.2-0.1-0.5-0.2-0.7c-3.3-9.6-10.1-17.3-19.1-21.8c-9.1-4.5-19.4-5.1-29-1.9l-45.5,15.5
		c-11.8,4-20.8,13.5-24.3,25.5c-2.1,7.4-1.9,15.2,0.6,22.6c0.6,1.8,1.4,3.5,2.2,5.1l-24.6,20.3c-6.8-4.5-14.8-6.6-23.1-6.1
		c-15.9,1-29.6,12.1-34,27.4c-1.2,4.2-1.6,8.5-1.4,12.9l3.1,47.9c1.3,20.4,18.7,36,39,35.4l6.8,18.4c-26.5,11.8-47.4,34.8-55.7,63.9
		c-1.2,4.4-2.2,8.9-2.9,13.5C0.5,379.3,34.5,419,72.5,426.7c0.2,0,0.3,0.1,0.5,0.2c-0.8,7.1-2.7,27.1-2.9,29.5
		C69.5,462.3,73.9,467.6,79.9,468.1z M438.8,372.2c-18.4,31.6-54.6,54.8-88.3,37.7c-10.3-5.2-22.5-2.3-28,6.6
		c5.1-9.1,1.5-21.2-8.1-27.6c-31.5-20.8-29.4-63.7-11.1-95.4c21.7-37.4,69.7-50.1,107.1-28.4C447.7,286.8,460.5,334.8,438.8,372.2z
		 M419.5,239.9c1.3-2.2,4.2-3,6.5-1.7c1.9,1.1,2.8,3.3,2.2,5.4c-0.1,0.4-0.3,0.7-0.5,1.1c-1.3,2.2-4.2,3-6.4,1.7c0,0,0,0,0,0
		c0,0,0,0,0,0C419,245.1,418.2,242.1,419.5,239.9z M391.4,132.1l6.5,47.6c0.3,2.2,0.1,4.5-0.5,6.6c-1.1,3.7-3.4,6.9-6.5,9l0.5-15.4
		c0.2-6-4.5-11-10.5-11.2c-5.1-0.2-9.5,3.2-10.8,7.9c-0.2,0.8-0.4,1.7-0.4,2.6l-0.4,12.9c-1.8-2.2-3.1-4.9-3.5-8l-6.5-47.6
		c-0.2-1.1-0.2-2.3-0.1-3.4l7.5,9.5c3.7,4.7,10.5,5.5,15.2,1.8c4.7-3.7,5.5-10.5,1.8-15.2l-8.7-11
		C383.1,118,390.3,123.8,391.4,132.1z M268.9,32.4c4-1.7,8.4-1.7,12.4,0l44.4,18.3c7,2.9,10.9,10.1,9.8,17.4l-5.2-6.6
		c-3.7-4.7-10.5-5.5-15.2-1.8c-1.9,1.5-3.1,3.4-3.7,5.5c-0.9,3.2-0.3,6.9,1.9,9.7l5.4,6.9c-1.8-0.1-3.6-0.4-5.3-1.1L269,62.4
		c-1-0.4-1.9-0.9-2.7-1.4l8.2-0.2c6-0.1,10.7-5.1,10.6-11.1c-0.1-6-5.1-10.7-11.1-10.6l-12.9,0.3C262.9,36.2,265.6,33.8,268.9,32.4z
		 M130.3,51.8l45.5-15.5c4.1-1.4,8.5-1.1,12.4,0.8c1.8,0.9,3.4,2.1,4.7,3.5l-8.6,0.2c-4.9,0.1-8.9,3.4-10.2,7.9
		c-0.3,1-0.4,2.1-0.4,3.2c0.1,6,5.1,10.7,11.1,10.6l8.4-0.2c-1.8,2.1-4.2,3.8-6.9,4.7l-45.5,15.5c-1.1,0.4-2.1,0.6-3.2,0.7l7.9-6.5
		c4.6-3.8,5.3-10.7,1.5-15.3c-3.8-4.6-10.6-5.3-15.3-1.5l-12,9.9C118.4,62.3,123,54.3,130.3,51.8z M43.6,185.5l-3.1-47.9
		c-0.6-8.8,6.5-16.7,15.1-17.2c0.9-0.1,1.8,0,2.7,0.1l-7.3,6c-1.8,1.4-2.9,3.3-3.5,5.4c-0.9,3.3-0.3,7,2.1,9.9
		c3.8,4.6,10.6,5.3,15.3,1.5l8.1-6.7l3.1,46.9c0.1,1.9-0.1,3.7-0.6,5.5c-0.4,1.6-1.1,3-2,4.3l-3.9-10.5c-2.1-5.6-8.3-8.5-13.9-6.4
		c-3.4,1.2-5.8,4-6.7,7.2c-0.6,2.1-0.6,4.5,0.3,6.7l3.2,8.7C47.5,196.3,44,191.4,43.6,185.5z M119,231.2c-0.4-0.6-1.1-1.8-0.9-3.5
		c0.3-2.6,2.8-4.4,5.3-4c1.7,0.2,2.7,1.2,3.1,1.8c0.4,0.6,1.1,1.8,0.9,3.5c0,0.2-0.1,0.4-0.1,0.7c-0.6,2.2-2.9,3.7-5.2,3.3l0,0
		c0,0,0,0,0,0C120.4,232.8,119.5,231.8,119,231.2z M30.6,321.2c6-42.8,45.7-72.6,88.5-66.6c20.7,2.9,39.1,13.7,51.6,30.5
		c12.6,16.7,17.9,37.3,15,58c-6.7,47.9-39.1,70.5-67.7,68.2c-11.5-0.9-21.6,6.3-23.4,16.6c1.2-10.3-6.6-20.1-17.9-22.4
		C39.7,398,25.5,357.4,30.6,321.2z"/>
</g>
<g>
</g>
<g>
</g>
<g>
</g>
<g>
</g>
<g>
</g>
<g>
</g>
<g>
</g>
<g>
</g>
<g>
</g>
<g>
</g>
<g>
</g>
<g>
</g>
<g>
</g>
<g>
</g>
<g>
</g>
</svg>
