<svg xmlns="http://www.w3.org/2000/svg" viewBox="0 0 423.1 480" enable-background="new 0 0 423.1 480"><path fill="#87724F" d="M398 330.1c-3.3 0-6.2 1.2-8.8 2.7l-55.2-92.8 55.1-92.8c2.6 1.6 5.5 2.7 8.8 2.7 9.6 0 17.5-7.9 17.5-17.5 0-9.7-7.9-17.5-17.5-17.5-9.7 0-17.5 7.8-17.5 17.5v.2l-107.7 1.3-52.7-94.1c5.3-3 9.1-8.5 9.1-15.1 0-9.7-7.8-17.5-17.5-17.5s-17.5 7.8-17.5 17.5c0 6.6 3.8 12 9.1 15.1l-52.8 94.1-107.7-1.3v-.2c0-9.7-7.9-17.5-17.5-17.5-9.7 0-17.5 7.8-17.5 17.5s7.8 17.5 17.5 17.5c3.3 0 6.2-1.2 8.8-2.7l55.1 92.8-55.1 92.8c-2.6-1.6-5.5-2.7-8.8-2.7-9.7 0-17.5 7.8-17.5 17.5s7.8 17.5 17.5 17.5c9.6 0 17.5-7.9 17.5-17.5v-.2l107.7-1.3 52.8 94.1c-5.3 3-9.1 8.5-9.1 15 0 9.7 7.9 17.5 17.5 17.5 9.7 0 17.5-7.9 17.5-17.5 0-6.6-3.7-12-9.1-15l52.8-94.1 107.7 1.3v.2c0 9.7 7.8 17.5 17.5 17.5 9.6 0 17.5-7.9 17.5-17.5 0-9.7-7.9-17.5-17.5-17.5z"/></svg>