<?xml version="1.0" encoding="utf-8"?>
<!-- Generator: Adobe Illustrator 18.1.1, SVG Export Plug-In . SVG Version: 6.00 Build 0)  -->
<svg version="1.1" id="Layer_1" xmlns="http://www.w3.org/2000/svg" xmlns:xlink="http://www.w3.org/1999/xlink" x="0px" y="0px"
	 viewBox="0 0 423.1 480" enable-background="new 0 0 423.1 480" xml:space="preserve">
<g id="Your_Icon">
	<path fill="#87724F" d="M398,330.1c-3.3,0-6.2,1.2-8.8,2.7L334,240l55.1-92.8c2.6,1.6,5.5,2.7,8.8,2.7c9.6,0,17.5-7.9,17.5-17.5
		c0-9.7-7.9-17.5-17.5-17.5c-9.7,0-17.5,7.8-17.5,17.5c0,0.1,0,0.1,0,0.2l-107.7,1.3L220,39.8c5.3-3,9.1-8.5,9.1-15.1
		c0-9.7-7.8-17.5-17.5-17.5c-9.7,0-17.5,7.8-17.5,17.5c0,6.6,3.8,12,9.1,15.1l-52.8,94.1l-107.7-1.3c0-0.1,0-0.1,0-0.2
		c0-9.7-7.9-17.5-17.5-17.5c-9.7,0-17.5,7.8-17.5,17.5c0,9.7,7.8,17.5,17.5,17.5c3.3,0,6.2-1.2,8.8-2.7L89.1,240L34,332.8
		c-2.6-1.6-5.5-2.7-8.8-2.7c-9.7,0-17.5,7.8-17.5,17.5c0,9.7,7.8,17.5,17.5,17.5c9.6,0,17.5-7.9,17.5-17.5c0-0.1,0-0.1,0-0.2
		l107.7-1.3l52.8,94.1c-5.3,3-9.1,8.5-9.1,15c0,9.7,7.9,17.5,17.5,17.5c9.7,0,17.5-7.9,17.5-17.5c0-6.6-3.7-12-9.1-15l52.8-94.1
		l107.7,1.3c0,0.1,0,0.1,0,0.2c0,9.7,7.8,17.5,17.5,17.5c9.6,0,17.5-7.9,17.5-17.5C415.5,337.9,407.6,330.1,398,330.1z"/>
</g>
<g>
</g>
<g>
</g>
<g>
</g>
<g>
</g>
<g>
</g>
<g>
</g>
<g>
</g>
<g>
</g>
<g>
</g>
<g>
</g>
<g>
</g>
<g>
</g>
<g>
</g>
<g>
</g>
<g>
</g>
</svg>
